<svg id="Layer_1" data-name="Layer 1" xmlns="http://www.w3.org/2000/svg" xmlns:xlink="http://www.w3.org/1999/xlink" viewBox="0 0 128 128"><defs><style>.cls-1,.cls-16,.cls-5,.cls-7{fill:none;}.cls-2{fill:#0076ff;}.cls-3,.cls-4{fill:#fff;}.cls-3{opacity:0.5;}.cls-5{stroke:aqua;}.cls-16,.cls-5,.cls-7{stroke-miterlimit:10;stroke-width:0.5px;}.cls-6{fill:#fed936;}.cls-7{stroke:#dd2b4b;}.cls-8{fill:#4d4d4d;}.cls-9{fill:#f2ebeb;}.cls-10{opacity:0.25;}.cls-11{fill:#746c62;}.cls-12,.cls-14{fill:#dd2b4b;}.cls-12,.cls-13{opacity:0.2;}.cls-13{fill:#007684;}.cls-15{opacity:0.75;}.cls-16{stroke:#fff;}.cls-17{clip-path:url(#clip-path);}.cls-18{fill:#d3a780;}.cls-19{fill:#262626;}</style><clipPath id="clip-path"><circle class="cls-1" cx="110" cy="113.32" r="10"/></clipPath></defs><title>videotape_wp-plugin-icon</title><rect class="cls-2" width="128" height="128"/><rect class="cls-3" x="22.36" y="4.92" width="36.48" height="24.32"/><rect class="cls-3" x="36.76" y="51.84" width="36.48" height="24.32"/><rect class="cls-3" x="22.36" y="98.75" width="36.48" height="24.32"/><rect class="cls-4" x="22.36" y="34.03" width="67.3" height="2.39"/><rect class="cls-4" x="22.36" y="39.87" width="38.11" height="2.39"/><rect class="cls-4" x="36.76" y="80.95" width="52.9" height="2.39"/><rect class="cls-4" x="36.76" y="86.79" width="38.11" height="2.39"/><circle class="cls-4" cx="12.79" cy="9.73" r="4.79"/><path class="cls-2" d="M15.69,14.82c0,2.13-1.3,3.85-2.9,3.85S9.88,17,9.88,14.82c0-1.53,1.3-3.85,2.9-3.85S15.69,13.39,15.69,14.82Z"/><circle class="cls-2" cx="12.79" cy="9.19" r="1.96"/><ellipse class="cls-2" cx="49.42" cy="11.46" rx="8.39" ry="5.37"/><polygon class="cls-2" points="39.38 18.34 45.17 16.09 42.06 14.09 39.38 18.34"/><line class="cls-5" x1="44.99" y1="8.78" x2="54.42" y2="8.78"/><line class="cls-5" x1="43.3" y1="11.17" x2="55.66" y2="11.17"/><line class="cls-5" x1="44.49" y1="13.57" x2="54.46" y2="13.57"/><ellipse class="cls-6" cx="46.64" cy="59.37" rx="8.39" ry="5.37"/><polygon class="cls-6" points="56.68 66.25 50.89 64 54 61.99 56.68 66.25"/><line class="cls-7" x1="51.07" y1="56.69" x2="41.65" y2="56.69"/><line class="cls-7" x1="52.77" y1="59.08" x2="40.41" y2="59.08"/><line class="cls-7" x1="51.57" y1="61.47" x2="41.6" y2="61.47"/><path class="cls-2" d="M29.72,22.9h2a2.34,2.34,0,0,1,2.34,2.34V29a0,0,0,0,1,0,0H27.38a0,0,0,0,1,0,0V25.24A2.34,2.34,0,0,1,29.72,22.9Z"/><path class="cls-8" d="M34.28,29.25h-7.1V25.39a2.69,2.69,0,0,1,2.69-2.69h1.72a2.69,2.69,0,0,1,2.69,2.69Zm-6.71-.39h6.32V25.22a2.13,2.13,0,0,0-2.13-2.13H29.7a2.13,2.13,0,0,0-2.13,2.13Z"/><path class="cls-9" d="M31.56,22.9q-.83,1.69-1.67,0V20.05h1.67Z"/><path class="cls-8" d="M30.73,23.94c-.36,0-.69-.31-1-1l0,0V19.86h2.06v3.08l0,0C31.42,23.62,31.09,23.94,30.73,23.94Zm-.64-1.09c.3.6.53.69.64.69s.33-.09.64-.69v-2.6H30.09Z"/><path class="cls-10" d="M31.56,20.53V21a.86.86,0,0,1-1.67,0V20.6C29.9,20,31.56,19.9,31.56,20.53Z"/><path class="cls-11" d="M32.88,20l.44.44a.28.28,0,0,0,.4,0l.27-.27a.28.28,0,0,1,.38,0l.41.33a.28.28,0,0,0,.39,0,9.56,9.56,0,0,0,2.38-6.3c0-4.06-2-4.95-2-4.95"/><path class="cls-8" d="M35,20.75a.48.48,0,0,1-.3-.1l-.41-.33a.09.09,0,0,0-.12,0l-.27.27a.48.48,0,0,1-.34.14h0a.48.48,0,0,1-.34-.14l-.44-.44.28-.28.44.44a.09.09,0,0,0,.06,0h0a.09.09,0,0,0,.06,0l.27-.27a.48.48,0,0,1,.64,0l.41.33a.09.09,0,0,0,.12,0,9.39,9.39,0,0,0,2.33-6.16c0-3.86-1.83-4.76-1.85-4.77L35.66,9c.08,0,2.08,1,2.08,5.13a9.79,9.79,0,0,1-2.43,6.43A.48.48,0,0,1,35,20.75Z"/><path class="cls-11" d="M25.86,14.77s-2.21,0-2.13.36a19,19,0,0,0,2,5.33.2.2,0,0,0,.29.06l.49-.39a.19.19,0,0,1,.25,0l.48.41a.2.2,0,0,0,.26,0l.63-.58"/><path class="cls-8" d="M27.33,20.78a.39.39,0,0,1-.26-.1l-.48-.41-.49.4a.39.39,0,0,1-.58-.12,19,19,0,0,1-2-5.39.3.3,0,0,1,.06-.25c.27-.33,1.67-.35,2.26-.34V15a6.39,6.39,0,0,0-1.92.18,18.55,18.55,0,0,0,1.92,5.21l.48-.39a.39.39,0,0,1,.51,0l.48.41L28,19.8l.27.29-.63.58A.39.39,0,0,1,27.33,20.78Z"/><ellipse class="cls-9" cx="30.53" cy="14.31" rx="5.34" ry="6.34"/><path class="cls-8" d="M30.53,20.84c-3.05,0-5.53-2.93-5.53-6.54s2.48-6.54,5.53-6.54,5.53,2.93,5.53,6.54S33.58,20.84,30.53,20.84Zm0-12.68c-2.83,0-5.14,2.76-5.14,6.14s2.31,6.14,5.14,6.14,5.14-2.76,5.14-6.14S33.37,8.16,30.53,8.16Z"/><path class="cls-11" d="M23.83,13.76a6.19,6.19,0,0,1,4.23-6.71c3.33-1.09,7-.12,7.76,2.29s-1.3,5-4.64,6.09c-2.9.95-7.39,0-8.35-1.28"/><path class="cls-8" d="M28.49,16c-2.47,0-5-.75-5.81-1.73L23,14c.88,1.14,5.23,2.16,8.13,1.21a7.83,7.83,0,0,0,3.77-2.48,3.59,3.59,0,0,0,.74-3.36c-.74-2.26-4.18-3.25-7.51-2.16A6,6,0,0,0,24,13.74l-.39.05A6.41,6.41,0,0,1,28,6.87c3.54-1.16,7.2,0,8,2.42a4,4,0,0,1-.8,3.72,8.24,8.24,0,0,1-4,2.62A9,9,0,0,1,28.49,16Z"/><path class="cls-8" d="M33.39,17.35a.22.22,0,0,1-.22-.22c0-.33-.2-.6-.43-.6s-.43.28-.43.6a.22.22,0,1,1-.43,0,.88.88,0,1,1,1.73,0A.22.22,0,0,1,33.39,17.35Z"/><path class="cls-8" d="M28.63,17.35a.22.22,0,0,1-.22-.22c0-.33-.2-.6-.43-.6s-.43.28-.43.6a.22.22,0,1,1-.43,0,.88.88,0,1,1,1.73,0A.22.22,0,0,1,28.63,17.35Z"/><path class="cls-8" d="M30.45,18.73a.93.93,0,0,1-.44-.12.22.22,0,1,1,.2-.38.46.46,0,0,0,.47,0,.22.22,0,1,1,.2.38A.93.93,0,0,1,30.45,18.73Z"/><path class="cls-8" d="M30.53,20.08c-.37,0-.73-.56-1.1-.81a.22.22,0,1,1,.25-.36,1.37,1.37,0,0,0,1.7,0,.22.22,0,1,1,.25.36C31.27,19.52,30.9,20.08,30.53,20.08Z"/><path class="cls-8" d="M29.93,13.75l-.06-.19a11.94,11.94,0,0,0,4.76-2.78l.14.14A12.14,12.14,0,0,1,29.93,13.75Z"/><path class="cls-8" d="M28.93,13.36l-.06-.19a10,10,0,0,0,4-2.32L33,11A10.15,10.15,0,0,1,28.93,13.36Z"/><circle class="cls-12" cx="32.93" cy="18.21" r="0.41"/><circle class="cls-12" cx="28.14" cy="18.21" r="0.41"/><path class="cls-9" d="M70.43,59.94h.14a1.37,1.37,0,0,1,0,2.74,1.21,1.21,0,0,1-.31,0"/><path class="cls-8" d="M70.57,62.87a1.43,1.43,0,0,1-.36,0l.11-.4a1,1,0,0,0,.26,0,1.16,1.16,0,0,0,0-2.32h-.11l0-.41h.16a1.58,1.58,0,0,1,0,3.15Z"/><path class="cls-9" d="M60.31,59.94h-.14a1.37,1.37,0,0,0,0,2.74,1.21,1.21,0,0,0,.31,0"/><path class="cls-8" d="M60.18,62.87a1.58,1.58,0,0,1,0-3.15h.16l0,.41h-.11a1.16,1.16,0,0,0,0,2.32,1,1,0,0,0,.26,0l.11.4A1.43,1.43,0,0,1,60.18,62.87Z"/><path class="cls-6" d="M71.59,76H59.41v-4a1.81,1.81,0,0,1,1-1.63l4.28-2.1a1.81,1.81,0,0,1,1.6,0l4.28,2.1a1.81,1.81,0,0,1,1,1.63Z"/><path class="cls-8" d="M71.8,76.16H59.21V71.94a2,2,0,0,1,1.13-1.81L64.61,68a2,2,0,0,1,1.78,0l4.28,2.1a2,2,0,0,1,1.13,1.81Zm-12.18-.42H71.39V71.94a1.59,1.59,0,0,0-.9-1.44l-4.28-2.1a1.61,1.61,0,0,0-1.41,0l-4.28,2.1a1.61,1.61,0,0,0-.9,1.44Z"/><path class="cls-9" d="M66.59,66.48H64.27l-1.66,2.8c.77,1.55,5,1.55,5.75,0Z"/><path class="cls-8" d="M65.49,70.65h0c-1.12,0-2.59-.34-3.06-1.28l-.05-.1,1.78-3H66.7l1.9,3-.05.11C68.08,70.32,66.61,70.65,65.49,70.65Zm-2.64-1.37a3.22,3.22,0,0,0,2.63,1h0a3.24,3.24,0,0,0,2.64-.95l-1.65-2.6H64.39Z"/><path class="cls-10" d="M66.5,66.72l.26.43a1.67,1.67,0,0,1-2.65,0l.24-.42C64.34,65.91,66.5,65.87,66.5,66.72Z"/><ellipse class="cls-9" cx="65.38" cy="60.88" rx="5.12" ry="5.76"/><path class="cls-8" d="M65.38,66.85c-2.94,0-5.33-2.68-5.33-6s2.39-6,5.33-6,5.33,2.68,5.33,6S68.32,66.85,65.38,66.85Zm0-11.52c-2.71,0-4.91,2.49-4.91,5.55s2.2,5.55,4.91,5.55,4.91-2.49,4.91-5.55S68.09,55.32,65.38,55.32Z"/><path class="cls-8" d="M63,60.74a.85.85,0,0,1-.78-.91h.25a.55.55,0,1,0,1.07,0h.25A.85.85,0,0,1,63,60.74Z"/><path class="cls-8" d="M67.9,60.74a.85.85,0,0,1-.78-.91h.25a.55.55,0,1,0,1.07,0h.25A.85.85,0,0,1,67.9,60.74Z"/><path class="cls-8" d="M65.77,61.73h-.52a.34.34,0,0,1-.33-.41l.26-1.12a.34.34,0,0,1,.33-.26h0a.34.34,0,0,1,.33.26l.26,1.12A.34.34,0,0,1,65.77,61.73Z"/><path class="cls-8" d="M64.12,58.86a.45.45,0,0,1-.45.45c-.25,0-1.8-.13-1.8-.38s1.55-.52,1.8-.52A.45.45,0,0,1,64.12,58.86Z"/><path class="cls-8" d="M66.86,58.86a.45.45,0,0,0,.45.45c.25,0,1.8-.13,1.8-.38s-1.55-.52-1.8-.52A.45.45,0,0,0,66.86,58.86Z"/><path class="cls-11" d="M64.58,52.24l-.09,1.53c.33-.11,3.47-1.41,4.07-.77-.56.46-.89.87-.58,1.17,0,0,3.83,1.91,2.88,5.65l-.42,1s-.62-.23-.58-.66.21-.63.21-.79-1.17-1.14-1.23-1.74l-2.11,0,.64.49A9.45,9.45,0,0,1,62,57.79a8.53,8.53,0,0,1-1.24,1.64,1.62,1.62,0,0,1,.14,1,1.11,1.11,0,0,1-.6.59s-1-2.6-.37-3.43a2.24,2.24,0,0,1,.74-1.14A3.89,3.89,0,0,1,62.43,54,2.79,2.79,0,0,1,64.58,52.24Z"/><path class="cls-8" d="M60.14,61.28l-.08-.2c-.11-.27-1-2.68-.37-3.6a2.45,2.45,0,0,1,.74-1.16,4.16,4.16,0,0,1,1.84-2.48l0,0A2.89,2.89,0,0,1,64.56,52l.24,0-.09,1.45c2.33-.87,3.57-1.06,4-.6l.15.16-.17.14c-.5.41-.62.63-.62.74a.14.14,0,0,0,0,.1c.4.21,3.88,2.21,2.95,5.87l-.51,1.26-.19-.07c-.29-.1-.76-.41-.71-.87a2.17,2.17,0,0,1,.16-.61l0-.14c0-.07-.18-.21-.28-.32a4.14,4.14,0,0,1-.9-1.25l-1.31,0,.46.35-.39.12a9.54,9.54,0,0,1-5.36-.28A9.47,9.47,0,0,1,61,59.47a1.62,1.62,0,0,1,.09,1,1.32,1.32,0,0,1-.72.72Zm4.22-8.79A2.66,2.66,0,0,0,62.65,54l-.07.12,0,0a3.68,3.68,0,0,0-1.7,2.3v.08l-.07,0a2,2,0,0,0-.67,1l0,.06c-.38.5,0,2,.32,3a.75.75,0,0,0,.29-.36,1.38,1.38,0,0,0-.13-.83l-.06-.13.1-.1a8,8,0,0,0,1.2-1.56l.07-.2.2.07a9.62,9.62,0,0,0,4.86.42l-.79-.6h.63l2.11,0H69l0,.18c0,.32.53.87.83,1.19s.4.44.4.57a.87.87,0,0,1-.08.32,1.78,1.78,0,0,0-.13.5c0,.14.13.27.26.35l.34-.84c.89-3.51-2.63-5.31-2.78-5.38l-.05,0a.57.57,0,0,1-.18-.44,1.33,1.33,0,0,1,.53-.84c-.37-.07-1.26,0-3.43.84l-.21.08-.29.1Z"/><path class="cls-8" d="M65.43,64.11h0a1.33,1.33,0,0,1-1.33-1.33h2.65A1.33,1.33,0,0,1,65.43,64.11Z"/><circle class="cls-13" cx="68.21" cy="62.12" r="0.54"/><circle class="cls-13" cx="62.79" cy="62.12" r="0.54"/><path class="cls-8" d="M64.85,56.86a5.93,5.93,0,0,1-2.56-.51l.09-.19a5.89,5.89,0,0,0,2.58.49v.21Z"/><path class="cls-8" d="M65.21,57.5a7.8,7.8,0,0,1-3-.58l.08-.19a7.6,7.6,0,0,0,3,.56Z"/><path class="cls-6" d="M29.92,100.29H32.2A5.81,5.81,0,0,1,38,106.1v14.34a2.21,2.21,0,0,1-2.21,2.21H26.32a2.21,2.21,0,0,1-2.21-2.21V106.1A5.81,5.81,0,0,1,29.92,100.29Z"/><path class="cls-8" d="M35.93,122.86H26.19a2.3,2.3,0,0,1-2.3-2.3V106.42a6.34,6.34,0,0,1,6.34-6.34h1.66a6.33,6.33,0,0,1,6.33,6.33v14.16A2.3,2.3,0,0,1,35.93,122.86ZM30.55,100.5a6.24,6.24,0,0,0-6.24,6.24v13.83a1.88,1.88,0,0,0,1.88,1.88h9.74a1.88,1.88,0,0,0,1.88-1.88V106.73a6.24,6.24,0,0,0-6.24-6.24Z"/><circle class="cls-9" cx="25.35" cy="108.37" r="0.74"/><path class="cls-8" d="M25.35,109.32a1,1,0,1,1,.95-1A1,1,0,0,1,25.35,109.32Zm0-1.48a.53.53,0,1,0,.53.53A.53.53,0,0,0,25.35,107.84Z"/><circle class="cls-9" cx="36.77" cy="108.37" r="0.74"/><path class="cls-8" d="M36.77,109.32a1,1,0,1,1,1-1A1,1,0,0,1,36.77,109.32Zm0-1.48a.53.53,0,1,0,.53.53A.53.53,0,0,0,36.77,107.84Z"/><path class="cls-14" d="M29.84,116.34h2.43a2.34,2.34,0,0,1,2.34,2.34v4.19a0,0,0,0,1,0,0H27.5a0,0,0,0,1,0,0v-4.19A2.34,2.34,0,0,1,29.84,116.34Z"/><path class="cls-8" d="M34.83,123.08H27.29v-4.4a2.55,2.55,0,0,1,2.55-2.55h2.44a2.55,2.55,0,0,1,2.55,2.55Zm-7.12-.42h6.7v-4a2.15,2.15,0,0,0-2.15-2.15H29.86a2.15,2.15,0,0,0-2.15,2.15Z"/><path class="cls-9" d="M32.36,116.34c-.31.63-1.3,2.17-1.3,2.17s-1-1.6-1.3-2.17l.42-3h1.77Z"/><path class="cls-8" d="M31.06,118.89l-.18-.27c0-.07-1-1.62-1.31-2.19l0-.06.45-3.26h2.13l.45,3.26,0,.06c-.31.63-1.27,2.12-1.31,2.19ZM30,116.3c.23.43.8,1.35,1.09,1.81.29-.45.84-1.34,1.08-1.81l-.38-2.77h-1.4Z"/><path class="cls-10" d="M31.94,113.83v.51a.92.92,0,0,1-1.77,0v-.43C30.18,113.23,31.94,113.16,31.94,113.83Z"/><path class="cls-9" d="M36.72,107.23c0,3.72-1.1,6.73-5.66,6.73s-5.66-3-5.66-6.73,2.53-5.06,5.66-5.06S36.72,103.51,36.72,107.23Z"/><path class="cls-8" d="M31.06,114.16c-5.26,0-5.87-4-5.87-6.94,0-3.4,2.08-5.27,5.87-5.27s5.87,1.87,5.87,5.27C36.93,110.2,36.32,114.16,31.06,114.16Zm0-11.79c-4.51,0-5.45,2.64-5.45,4.85,0,4.51,1.68,6.52,5.45,6.52s5.45-2,5.45-6.52C36.51,103.22,33.55,102.38,31.06,102.38Z"/><path class="cls-8" d="M34.27,107.95a.23.23,0,0,1-.23-.23c0-.35-.19-.49-.44-.49a.44.44,0,0,0-.47.49.23.23,0,1,1-.46,0,.93.93,0,1,1,1.84,0A.23.23,0,0,1,34.27,107.95Z"/><path class="cls-8" d="M29.22,107.95a.23.23,0,0,1-.23-.23.44.44,0,0,0-.47-.49c-.25,0-.44.14-.44.49a.23.23,0,1,1-.46,0,.93.93,0,1,1,1.84,0A.23.23,0,0,1,29.22,107.95Z"/><path class="cls-8" d="M31,109.83a1,1,0,0,1-.47-.12.23.23,0,0,1,.22-.41.49.49,0,0,0,.5,0,.23.23,0,0,1,.22.41A1,1,0,0,1,31,109.83Z"/><circle class="cls-12" cx="33.6" cy="109.27" r="0.63"/><circle class="cls-12" cx="28.52" cy="109.27" r="0.63"/><path class="cls-8" d="M30.14,110.87h1.67a.25.25,0,0,1,.25.25v.2a.75.75,0,0,1-.75.75h-.66a.75.75,0,0,1-.75-.75v-.2a.25.25,0,0,1,.25-.25Z"/><path class="cls-6" d="M28.5,103.12c-.08,2.5-1.29,2.94-3.1,2.28a4.93,4.93,0,0,1,4.7-4.68l1.85,0c1.52,0,4.87,2.23,4.87,5.25C34.86,105.94,31,106,28.5,103.12Z"/><path class="cls-8" d="M35.88,106.18a10.16,10.16,0,0,1-7.08-2.47,2.14,2.14,0,0,1-.5,1.39,2,2,0,0,1-2.9.41l.12-.41a1.76,1.76,0,0,0,2.46-.27,1.73,1.73,0,0,0,.32-1.64l0-.14.27-.2.13.13c1.88,2,4.7,3,8.14,2.76l.05.41C36.53,106.17,36.19,106.18,35.88,106.18Z"/><path class="cls-8" d="M34.84,105c-2.65,0-3.71-.46-4.74-2l.26-.18c1,1.44,1.94,1.84,4.49,1.85Z"/><path class="cls-8" d="M34.37,104.33c-2,0-2.77-.34-3.54-1.49l.26-.18c.71,1,1.42,1.34,3.28,1.35Z"/><circle class="cls-14" cx="37.34" cy="109.11" r="0.34"/><path class="cls-8" d="M37.34,109.56a.45.45,0,1,1,.45-.45A.45.45,0,0,1,37.34,109.56Zm0-.68a.24.24,0,1,0,.24.24A.24.24,0,0,0,37.34,108.88Z"/><circle class="cls-14" cx="24.83" cy="109.11" r="0.34"/><path class="cls-8" d="M24.83,109.56a.45.45,0,1,1,.45-.45A.45.45,0,0,1,24.83,109.56Zm0-.68a.24.24,0,1,0,.24.24A.24.24,0,0,0,24.83,108.88Z"/><g class="cls-15"><path class="cls-4" d="M43.52,18.1,39.4,19.82a.73.73,0,0,1-1-.68V15a.73.73,0,0,1,1.1-.63l4.12,2.4A.73.73,0,0,1,43.52,18.1Z"/><path class="cls-4" d="M40.6,23.07a6,6,0,1,1,6-6A6,6,0,0,1,40.6,23.07Zm0-10.76a4.78,4.78,0,1,0,4.78,4.78A4.78,4.78,0,0,0,40.6,12.31Z"/></g><g class="cls-15"><path class="cls-4" d="M57.94,65l-4.12,1.73a.73.73,0,0,1-1-.68V61.94a.73.73,0,0,1,1.1-.63L58,63.7A.73.73,0,0,1,57.94,65Z"/><path class="cls-4" d="M55,70a6,6,0,1,1,6-6A6,6,0,0,1,55,70Zm0-10.76A4.78,4.78,0,1,0,59.81,64,4.78,4.78,0,0,0,55,59.22Z"/></g><ellipse class="cls-14" cx="49.06" cy="106.32" rx="8.39" ry="5.37"/><polygon class="cls-14" points="39.02 113.2 44.81 110.96 41.7 108.95 39.02 113.2"/><line class="cls-16" x1="44.63" y1="103.64" x2="54.05" y2="103.64"/><line class="cls-16" x1="42.93" y1="106.03" x2="55.3" y2="106.03"/><line class="cls-16" x1="44.13" y1="108.43" x2="54.1" y2="108.43"/><g class="cls-15"><path class="cls-4" d="M43.52,111.93l-4.12,1.73a.73.73,0,0,1-1-.68v-4.12a.73.73,0,0,1,1.1-.63l4.12,2.4A.73.73,0,0,1,43.52,111.93Z"/><path class="cls-4" d="M40.6,116.9a6,6,0,1,1,6-6A6,6,0,0,1,40.6,116.9Zm0-10.76a4.78,4.78,0,1,0,4.78,4.78A4.78,4.78,0,0,0,40.6,106.14Z"/></g><rect class="cls-2" x="27.57" y="28.63" width="6.32" height="0.62"/><rect class="cls-6" x="59.62" y="74.95" width="11.77" height="1.21"/><rect class="cls-14" x="27.71" y="122.3" width="6.7" height="0.78"/><circle class="cls-4" cx="27.15" cy="56.63" r="4.79"/><path class="cls-2" d="M30.05,61.72c0,2.13-1.3,3.85-2.9,3.85s-2.9-1.72-2.9-3.85c0-1.53,1.3-3.85,2.9-3.85S30.05,60.29,30.05,61.72Z"/><circle class="cls-2" cx="27.15" cy="56.1" r="1.96"/><circle class="cls-4" cx="12.79" cy="103.5" r="4.79"/><path class="cls-2" d="M15.69,108.59c0,2.13-1.3,3.85-2.9,3.85s-2.9-1.72-2.9-3.85c0-1.53,1.3-3.85,2.9-3.85S15.69,107.16,15.69,108.59Z"/><circle class="cls-2" cx="12.79" cy="102.96" r="1.96"/><circle class="cls-6" cx="110" cy="113.32" r="10"/><g class="cls-17"><path class="cls-18" d="M118.27,148a2.9,2.9,0,0,0-1.32-3.28c-.66-.51-4.89-30.85-4.7-31.43,3.32.24,5.11-4.5,4.9-5.1s-5.75-1.55-6.9,2c-.45,0-9.57-6.7-15.2-6.7-10.7,0-11.7,13.28-15.1,19.08a1.9,1.9,0,0,0,.6,1.61c.84.71,3.94-.71,4.34-.2,1.2.76,2.76-5,4.07-5.67.68-.32,2,.17,2.89.36a4.42,4.42,0,0,1,2.14.87c.84,1.08-.48,5.18-1.62,6.55s-9,3.13-9,13.69c0,8.07,6.54,8.79,6.54,8.79s12.38,3.4,12.82,4.44a8.68,8.68,0,0,1,.66,1.81,2.27,2.27,0,0,0-.62,1.47c0,1.08,3,1.95,6.62,1.95s6.23-.87,6.23-1.95c0-.42-.06-1.45-.83-1.77,0-1.29,0-2.7,0-4.15C114.76,150.4,118,149,118.27,148Z"/><path class="cls-19" d="M109.37,158.46c-3.3,0-6.81-.75-6.81-2.14a2.68,2.68,0,0,1,.6-1.55,6.37,6.37,0,0,0-.45-1.25l-.18-.41c-.06-.13-.69-.71-6.45-2.5-3-.93-6-1.76-6.22-1.82a7.74,7.74,0,0,1-3.35-1.4,7.57,7.57,0,0,1-2.31-2.71,10.64,10.64,0,0,1-1-4.87A14.05,14.05,0,0,1,86,130.74a16.08,16.08,0,0,1,4.82-3.82,6.13,6.13,0,0,0,1.38-.93,10,10,0,0,0,1.52-3.31c.39-1.42.43-2.56.11-3a4.46,4.46,0,0,0-2-.81l-.67-.17a3.91,3.91,0,0,0-2.1-.21c-.52.25-1.17,1.6-1.75,2.78-.72,1.48-1.34,2.76-2,3a.6.6,0,0,1-.5-.07l0,0,0,0s-.06-.07-.45,0-.67.12-1.08.21c-1.1.25-2.25.5-2.78,0a2.09,2.09,0,0,1-.66-1.81v0a35.61,35.61,0,0,0,2.37-5.65c1.08-3,2.31-6.44,4.24-9a10.21,10.21,0,0,1,8.66-4.48c4.44,0,11,4.13,13.86,5.89.5.31,1,.61,1.22.74a3.55,3.55,0,0,1,1.79-1.94,6.21,6.21,0,0,1,2.63-.58c1.21,0,2.61.26,2.77.71s-.36,2-1.38,3.36a4.49,4.49,0,0,1-3.46,2h-.05c.06,1.19,1,8.07,2,15.45,1.3,9,2.32,15.07,2.62,15.63a3.08,3.08,0,0,1,1.37,3.48c-.25,1-2.84,2.17-3.5,2.46,0,1.33,0,2.61,0,3.91a2.1,2.1,0,0,1,.83,1.89c0,.63-.65,1.17-1.88,1.56A15.64,15.64,0,0,1,109.37,158.46ZM89.54,118a7.27,7.27,0,0,1,1.71.31l.65.16a4.58,4.58,0,0,1,2.24.93h0c.57.73.22,2.41,0,3.34a10.18,10.18,0,0,1-1.6,3.45,6.06,6.06,0,0,1-1.49,1c-2.61,1.5-7.48,4.28-7.48,12.55a10.27,10.27,0,0,0,1,4.68,7.19,7.19,0,0,0,2.18,2.58,7.46,7.46,0,0,0,3.19,1.34h0s3.13.86,6.25,1.83c6.39,2,6.61,2.52,6.69,2.72l.18.4a6.49,6.49,0,0,1,.5,1.44l0,.13-.11.07a2.12,2.12,0,0,0-.53,1.31c0,.83,2.64,1.76,6.42,1.76a15.26,15.26,0,0,0,4.43-.56c1-.33,1.61-.76,1.61-1.19s-.09-1.33-.71-1.59l-.12,0v-.13c0-1.38,0-2.73,0-4.14v-.13l.12-.05c1.22-.52,3.22-1.6,3.39-2.26h0a2.69,2.69,0,0,0-1.22-3.06l0,0c-.12-.09-.29-.22-1.11-5.16-.57-3.44-1.2-7.69-1.63-10.65-.55-3.77-1.08-7.66-1.47-10.66-.64-4.92-.58-5.09-.55-5.17l0-.14h.15a4,4,0,0,0,3.35-1.81,6.18,6.18,0,0,0,1.35-3,5.37,5.37,0,0,0-3.24-.4,3.71,3.71,0,0,0-3.3,2.39l0,.13h-.14c-.14,0-.38-.14-1.54-.86-2.79-1.75-9.33-5.83-13.66-5.83A9.85,9.85,0,0,0,86.71,108c-1.9,2.56-3.12,6-4.19,8.95a36.13,36.13,0,0,1-2.39,5.69,1.76,1.76,0,0,0,.54,1.39c.39.33,1.53.08,2.45-.13s1.61-.36,1.89-.08a.21.21,0,0,0,.17,0c.5-.14,1.17-1.53,1.77-2.75s1.29-2.66,1.93-3A1.53,1.53,0,0,1,89.54,118Zm27.55,26.57Z"/><path class="cls-19" d="M112.15,111.78l-.38-.05a2.46,2.46,0,0,1,1-1.8,1.89,1.89,0,0,1,1.61-.15.21.21,0,0,1,.14.12.85.85,0,0,1-.17.82l-.3-.24a.53.53,0,0,0,.13-.36,1.48,1.48,0,0,0-1.2.13A2.1,2.1,0,0,0,112.15,111.78Z"/><path class="cls-19" d="M111.53,117.41l-.38-.05c0-.06.18-1.43-.93-1.81a1.16,1.16,0,0,0-1.27.38,2.8,2.8,0,0,0-.49.72l-.35-.15c.27-.63,1.09-1.7,2.23-1.31A2,2,0,0,1,111.53,117.41Z"/><path class="cls-19" d="M101.18,121.42a18.15,18.15,0,0,1-5.49-1.34c-1-.33-2-.68-3-1l.11-.37c1.07.31,2.07.66,3,1,2.68.93,5,1.73,6.87,1.08,3.61-1.47,3-3.05,3-3.07l.36-.14c0,.08.71,2-3.25,3.57h0A5,5,0,0,1,101.18,121.42Z"/><path class="cls-19" d="M106.26,117.75a10.33,10.33,0,0,1-2-.27l.08-.38a5.19,5.19,0,0,0,2.73.13l.15.36A2.58,2.58,0,0,1,106.26,117.75Z"/></g></svg>